<svg xmlns="http://www.w3.org/2000/svg" viewBox="0 0 64 64" role="img" aria-labelledby="title">
  <title id="title">Katu Maps</title>
  <defs><clipPath id="c"><rect width="64" height="64" rx="14"/></clipPath></defs>
  <g clip-path="url(#c)">
    <rect width="64" height="64" fill="#74c8f4"/>
    <path d="M0 39c12-8 23-8 34-1 12-9 22-9 30-4v30H0z" fill="#96c958"/>
    <path d="M28 22h10v19H28zm8-8h13v28H36zm11 14h10v15H47z" fill="#fffaf0"/>
    <path d="M8 64c5-12 12-21 22-29 8-7 17-12 29-17l5 5c-11 5-20 10-27 16-8 7-14 15-18 25z" fill="#263d52"/>
    <path d="M15 57c2-5 5-9 8-13m6-7 6-5" fill="none" stroke="#fff" stroke-width="3" stroke-linecap="round"/>
    <rect x="12" y="28" width="3" height="14" rx="1.5" fill="#74462e"/>
    <circle cx="13.5" cy="25" r="8" fill="#5e9e42"/>
  </g>
</svg>
